<?xml version="1.0" encoding="utf-8"?>
<!-- Generator: Adobe Illustrator 24.3.0, SVG Export Plug-In . SVG Version: 6.00 Build 0)  -->
<svg version="1.1" id="Layer_1" xmlns="http://www.w3.org/2000/svg" xmlns:xlink="http://www.w3.org/1999/xlink" x="0px" y="0px"
	 viewBox="0 0 101.3 101.3" style="enable-background:new 0 0 101.3 101.3;" xml:space="preserve">
<style type="text/css">
	.st0{fill:#4CAF50;}
	.st1{fill:#FFFFFF;}
</style>
<circle class="st0" cx="50.6" cy="50.6" r="50.6"/>
<path class="st1" d="M68.5,32.6c-4.8-4.8-11.1-7.4-17.8-7.4c-13.9,0-25.2,11.3-25.2,25.2c0,4.4,1.2,8.8,3.4,12.6l-3.6,13l13.3-3.5
	c3.7,2,7.8,3.1,12,3.1h0c13.9,0,25.2-11.3,25.2-25.2C75.9,43.7,73.3,37.3,68.5,32.6z M50.7,71.3L50.7,71.3c-3.8,0-7.4-1-10.7-2.9
	L39.3,68L31.4,70l2.1-7.7L33,61.5c-2.1-3.3-3.2-7.2-3.2-11.1c0-11.5,9.4-20.9,20.9-20.9c5.6,0,10.8,2.2,14.8,6.1
	c4,4,6.1,9.2,6.1,14.8C71.7,61.9,62.3,71.3,50.7,71.3z M62.2,55.7c-0.6-0.3-3.7-1.8-4.3-2c-0.6-0.2-1-0.3-1.4,0.3
	c-0.4,0.6-1.6,2-2,2.5c-0.4,0.4-0.7,0.5-1.4,0.2c-0.6-0.3-2.7-1-5.1-3.1c-1.9-1.7-3.1-3.7-3.5-4.4c-0.4-0.6,0-0.9,0.3-1.3
	c0.7-0.8,1.4-1.7,1.6-2.2c0.2-0.4,0.1-0.8-0.1-1.1c-0.2-0.3-1.4-3.4-1.9-4.7c-0.5-1.2-1-1.1-1.4-1.1c-0.4,0-0.8,0-1.2,0
	c-0.4,0-1.1,0.2-1.7,0.8c-0.6,0.6-2.2,2.2-2.2,5.2s2.3,6.1,2.6,6.5c0.3,0.4,4.4,6.8,10.7,9.5c1.5,0.6,2.7,1,3.6,1.3
	c1.5,0.5,2.9,0.4,4,0.2c1.2-0.2,3.7-1.5,4.2-3c0.5-1.5,0.5-2.7,0.4-3C63.3,56.1,62.8,56,62.2,55.7z"/>
</svg>
